<?xml version="1.0" standalone="no"?>
<!DOCTYPE svg PUBLIC "-//W3C//DTD SVG 20010904//EN"
 "http://www.w3.org/TR/2001/REC-SVG-20010904/DTD/svg10.dtd">
<svg version="1.0" xmlns="http://www.w3.org/2000/svg"
 width="512.000000pt" height="512.000000pt" viewBox="0 0 512.000000 512.000000"
 preserveAspectRatio="xMidYMid meet">
<metadata>
Created by potrace 1.11, written by Peter Selinger 2001-2013
</metadata>
<g transform="translate(0.000000,512.000000) scale(0.100000,-0.100000)"
fill="#000000" stroke="none">
<path d="M2305 4788 c-414 -46 -818 -216 -1150 -483 -365 -293 -628 -695 -759
-1160 -65 -228 -92 -562 -67 -806 79 -768 542 -1440 1228 -1782 304 -153 587
-224 929 -234 386 -12 708 56 1049 221 656 318 1107 917 1236 1641 20 113 24
163 24 375 0 276 -17 401 -80 620 -255 875 -1013 1511 -1917 1609 -114 13
-379 12 -493 -1z m416 -318 c462 -42 874 -234 1194 -555 351 -352 544 -800
560 -1300 18 -524 -185 -1035 -560 -1410 -299 -299 -669 -483 -1097 -546 -103
-15 -337 -19 -443 -8 -666 68 -1247 471 -1535 1064 -128 264 -187 506 -195
800 -17 662 302 1273 860 1646 346 232 799 347 1216 309z"/>
<path d="M2721 4304 c-141 -38 -293 -163 -353 -290 -30 -63 -33 -77 -32 -159
0 -96 -3 -82 113 -403 63 -175 71 -265 35 -399 -6 -22 -4 -23 38 -17 63 9 175
-12 248 -47 121 -57 238 -206 256 -326 3 -24 10 -43 14 -43 12 0 283 140 360
185 93 55 227 193 272 280 203 389 21 896 -402 1122 -188 100 -399 137 -549
97z"/>
<path d="M1458 3269 c-318 -46 -602 -334 -675 -687 -21 -105 -14 -325 16 -437
64 -243 215 -399 437 -451 98 -23 204 -15 275 21 83 42 130 86 241 224 172
212 279 300 388 317 l37 6 -39 77 c-95 189 -67 394 77 549 32 34 56 64 54 66
-32 26 -192 131 -283 185 -106 63 -218 109 -301 125 -55 11 -170 13 -227 5z"/>
<path d="M2440 2858 c-74 -29 -150 -105 -178 -181 -80 -213 73 -437 298 -437
176 0 320 144 320 320 0 225 -227 379 -440 298z"/>
<path d="M2984 2337 c-26 -57 -137 -168 -201 -201 -62 -31 -160 -56 -224 -56
-25 0 -81 9 -124 20 -43 11 -80 19 -81 17 -7 -7 -20 -287 -18 -392 3 -134 25
-238 70 -327 110 -219 304 -358 572 -409 91 -17 298 -6 391 21 268 77 518 292
593 508 18 54 23 88 22 172 0 187 -66 329 -191 408 -64 41 -157 67 -346 97
-224 36 -317 70 -407 151 l-37 34 -19 -43z"/>
</g>
</svg>
